<?xml version="1.0" standalone="no"?><!DOCTYPE svg PUBLIC "-//W3C//DTD SVG 1.1//EN" "http://www.w3.org/Graphics/SVG/1.1/DTD/svg11.dtd"><svg class="icon" width="200px" height="200.00px" viewBox="0 0 1024 1024" version="1.1" xmlns="http://www.w3.org/2000/svg"><path fill="#000000" d="M857.6 362.666667c12.8-21.333333 38.4-25.6 59.733333-12.8 21.333333 12.8 25.6 38.4 12.8 59.733333-85.333333 140.8-243.2 230.4-418.133333 230.4s-332.8-89.6-422.4-234.666667c-8.533333-17.066667-4.266667-46.933333 17.066667-59.733333 17.066667-8.533333 46.933333-4.266667 59.733333 17.066667C238.933333 482.133333 366.933333 554.666667 512 554.666667s273.066667-72.533333 345.6-192zM512 682.666667c25.6 0 42.666667 17.066667 42.666667 42.666666v85.333334c0 25.6-17.066667 42.666667-42.666667 42.666666s-42.666667-17.066667-42.666667-42.666666v-85.333334c0-25.6 17.066667-42.666667 42.666667-42.666666z m-298.666667-72.533334c21.333333 12.8 25.6 38.4 17.066667 59.733334l-42.666667 72.533333c-12.8 17.066667-38.4 25.6-59.733333 12.8-21.333333-12.8-25.6-38.4-17.066667-59.733333l42.666667-72.533334c12.8-17.066667 38.4-25.6 59.733333-12.8z m597.333334 8.533334c21.333333-12.8 46.933333-4.266667 59.733333 17.066666l42.666667 72.533334c12.8 21.333333 4.266667 46.933333-17.066667 59.733333s-46.933333 4.266667-59.733333-17.066667l-42.666667-72.533333c-8.533333-21.333333-4.266667-46.933333 17.066667-59.733333z" /></svg>