<?xml version="1.0" encoding="utf-8"?>
<svg version="1.1" id="logo" xmlns="http://www.w3.org/2000/svg" xmlns:xlink="http://www.w3.org/1999/xlink" x="0px" y="0px"
	 viewBox="0 0 1133 506" xml:space="preserve">
<style type="text/css">
	.st0{fill:#3295FB;}
	.st1{fill:#0067D1;}
	.st2{fill:#6EB3FB;}
	.st3{fill:#1287FF;}
	.st4{fill:#449EFB;}
	.st5{fill:#FEFEFE;}
	.st6{fill:#007DFF;}
</style>
<g>
	<g>
		<path class="st0" d="M245.9,420.9c-33.3,0-66.6,0-99.9,0c-7.4-16-18.4-29-33.1-38.9c20.1,0,40.2-0.1,60.3,0.1
			c4.3,0,5.9-1.5,5.9-5.8c-0.1-4.8,0.5-9.6,0.7-14.3c0.1,5,0.4,10,0.1,15c-0.3,4.9,1.7,6.1,6.4,6.1c48.6-0.1,97.1,0,145.7,0.1
			c12,0,23.9,0,35.9,0c2.9,0,5.4-0.3,5.3-4.1c1.9,1,3.8,2.8,5.7,2.9c9,0.3,18,0,27,0.2c4,0.1,5.2-1.7,5.2-5.5
			c-0.1-43.5,0-87,0-130.5c0-3.1-1.1-5.1-4-6c1.7,0.6,3.4,1.2,5.1,1.8c0,17,0,34.1,0,51.1c0,28,0,55.9-0.2,83.9
			c0,4.3,1.2,5.9,5.6,5.8c11.8-0.2,23.6-0.1,35.5-0.1c6.8,0,6.8,0,7-6.7c1.3,2.6,1,6.3,5.7,6.1c9.1-0.3,18.3-0.2,27.4-0.1
			c3.8,0,4.8-1.8,4.9-5.2c0-4.6,0.4-9.2,0.7-13.9c0.1,4.7,0.4,9.3,0.1,14c-0.3,4.9,1.7,6.3,6.4,6.2c23.7-0.2,47.3-0.1,71-0.1
			c1.9,0,3.8-0.7,5.7-1.1c0-2.3,0-4.6,0-6.9c0.6,6.4,4.6,7.4,10.3,7.1c9.6-0.5,19.1-0.1,28.7-0.1c0.3,0.1,0.7,0.1,1,0.1
			c1,0.2,1.9,0.5,2.9,0.5c22.3,0,44.7,0,67,0.1c4.8,0,4.5-2.7,4.1-5.9c-2.8-25.7-5.7-51.3-8.5-77c-5.6-51.2-11.1-102.3-16.6-153.5
			c-0.6-5.1-1.2-10.3-1.8-15.4c-0.2-2.1-0.3-4.2,2.9-3.9c1.3,0.7,2.6,1.5,4,2c12.9,5,25.7,9.9,38.6,14.9c17.2,6.6,34.4,13.3,51.6,20
			c-0.1,15.1-0.3,30.3-0.3,45.4c-0.2,39.8-0.2,79.5-0.5,119.3c0,5.1,1.5,6.5,6.5,6.4c20.5-0.3,40.9-0.1,61.4-0.1
			c2.6,0,5.2,0.6,7.8,1c-23.2,0-46.3-0.1-69.5,0.1c-2.4,0-5.1,0.5-7,1.7c-19.6,12.6-39.1,25.4-58.6,38.1c-2.4,1.6-4.8,3.3-7.2,4.9
			c0.1,0.4,0.3,0.8,0.4,1.2c22.7,0,45.5,0,68.2,0c-2.1,0.3-4.2,0.8-6.4,0.8c-13.8,0.1-27.6,0-41.4,0.1c-1.7,0-3.4,0.2-6.1,0.4
			c1.8,2,2.7,3.1,3.8,4.1c17.8,15.7,38.4,21.9,61.9,18.3c17.2-2.6,31.7-10.5,43.2-23.7c6-0.3,12-0.7,18-1c1.5,0.7,3.1,1.9,4.6,2
			c5.8,0.2,11.6-0.1,17.3,0.2c3.8,0.1,5.6-1.4,5.2-5.2c0.9,3.3,3.1,4.2,6.3,4.1c6.5-0.2,12.9,0,19.4-0.1
			c13.6-0.1,11.9,1.5,12.1-12.3c0.1-7.2,0.6-14.5,0.9-21.7c0,10,0.2,19.9,0.1,29.9c0,2.9,0.4,4.8,4,4.8c3.4,0,4.2-1.7,4.2-4.7
			c-0.1-15.1,0-30.3,0-45.4c0-6.5,0-6.5,6.7-6.6c5.5,0,11,0.2,16.5-0.1c3.7-0.1,5,1.2,5,4.9c-0.1,11.1,0.1,22.3-0.1,33.4
			c-0.1,4.4,1.5,6,5.8,5.8c4.6-0.3,9.3-0.1,14-0.1c0.7,2.1,1.9,4.2,1.9,6.2c0,4.1,1.3,6,5.8,6c9.1,0,18.2,0.6,27.3,0.8
			c2.1,0,4.2-0.7,6.2-1c5.6,0,11.2,0.1,16.9,0c11.8,0,11,1.2,10.9-10.9c0.1-0.5,0.1-1,0.2-1.4c0.3,0.1,0.5,0.2,0.8,0.4
			c5.4,0.3,10.9,0.8,16.3,0.9c3.4,0.1,4.7,1.4,4.8,4.8c0.2,6.6-0.2,7.1-6.8,7.2c-4.5,0-9,0-14.6,0c11.2,20,27.4,30.6,47.4,36.5
			c-0.2,0.5-0.3,1-0.5,1.5c-2.2,0-4.5,0-6.7,0c-188.6,0-377.2,0-565.9,0c-20,0-40,0.1-60,0.1c-29.3,0-58.6,0-88,0c0,0,0,0,0,0
			C328.1,386.7,276,386.7,245.9,420.9z M209.1,408c12.1,0,22.2-7.8,25-19c0.8-3.4,0.1-5-3.6-5c-14,0.1-27.9,0.1-41.9,0
			c-3.6,0-4.6,1.4-3.8,5C187.1,399.8,197.4,408,209.1,408z M915.4,384.6c0.6,2.1,0.8,3.5,1.3,4.6c4.8,9.2,12.3,15.5,22.8,15.3
			c11-0.1,21.1-3.5,26.8-14.3c2.5-4.7,1.6-6.2-3.9-6.2c-14-0.1-28,0-42,0C919,384,917.5,384.3,915.4,384.6z M446.9,419.4
			c16.6,0,32.9,0,49.3,0c-3.8-10.6-14.5-19.5-26.6-18.7C460.5,401.3,449.1,407.2,446.9,419.4z M887,408.5c0-7.6-4.9-12.5-12.5-12.5
			c-6.6,0-11.4,4.6-11.5,11.1c-0.1,6.7,5.3,12.5,11.5,12.6C882.1,419.8,887,415.4,887,408.5z M535.2,384.9c-5.9,0-11.1,5.3-11,11.2
			c0.1,5.9,5.3,10.9,11.4,10.9c5.9,0,10.4-4.5,10.5-10.4C546.1,390.1,541.4,384.9,535.2,384.9z M629.9,402.9
			c0.2-6.2-3.8-10.6-9.7-10.9c-6.5-0.2-11.7,4.1-12,9.9c-0.3,5.5,5.3,11.4,10.9,11.5C625.3,413.5,629.8,409.1,629.9,402.9z"/>
		<path class="st1" d="M179.8,361.9c-0.3,4.8-0.8,9.6-0.7,14.3c0.1,4.3-1.6,5.8-5.9,5.8c-20.1-0.1-40.2-0.1-60.3-0.1
			c-0.6-0.7-1.3-1.4-1.9-2.1c-3.6-33.4-7.1-66.9-10.7-100.3C95,230,89.6,180.4,84.2,130.8c-0.1-1.3,0-2.6,0-3.7
			c31.7,0,63.2,0,94.7,0c0.4,2.6,1.1,5.2,1.1,7.8c0.1,39.6,0.2,79.2,0.2,118.8C180.1,289.7,179.9,325.8,179.8,361.9z"/>
		<path class="st0" d="M247,131c8,2.2,16.2,3.7,23.8,6.9c47.9,19.8,71.7,75.4,54.1,124.1c-13.9,38.3-49.9,63-88.4,65.3
			c-27,1.6-49.8-18.4-52.2-45.2c-2.3-26.1,17.6-50.4,44.1-53.2c13.2-1.4,25.7-4.1,35.4-14c1-0.6,2.2-1,2.9-1.9
			c16.6-18.8,17.7-44.5,3.1-63.6c-5.9-7.7-13.4-13.3-22.3-16.9C247.2,132.4,247.2,131.5,247,131z"/>
		<path class="st1" d="M906,348c-0.3,7.2-0.8,14.5-0.9,21.7c-0.2,13.8,1.5,12.2-12.1,12.3c-6.5,0-12.9-0.1-19.4,0.1
			c-3.3,0.1-5.5-0.8-6.3-4.1c-0.4-1.7-0.7-3.3-1.1-5c-3.9-35.8-7.7-71.5-11.6-107.3c-0.8-7.1-1.4-14.3-2.4-21.4
			c-0.5-3.6,0.4-5.2,4.4-5.1c15.2,0.4,30.3,0.7,45.5,0.8c3,0,4.2,0.9,4.1,4C906,278.7,906,313.3,906,348z"/>
		<path class="st1" d="M407,240.2c3,0.9,4,2.8,4,6c-0.1,43.5-0.1,87,0,130.5c0,3.7-1.2,5.5-5.2,5.5c-9-0.2-18,0.1-27-0.2
			c-1.9-0.1-3.8-1.9-5.7-2.9c-0.3-1-0.7-2-1-3.1c-3.5-32.7-7-65.4-10.6-98.2c-1.2-10.9-2.3-21.8-3.5-32.7c-0.2-1.6,0-3.3,0-4.8
			C374.6,240.2,390.8,240.2,407,240.2z"/>
		<path class="st1" d="M498.8,362.9c-0.2,4.6-0.7,9.2-0.7,13.9c0,3.4-1.1,5.3-4.9,5.2c-9.1-0.1-18.3-0.3-27.4,0.1
			c-4.7,0.2-4.5-3.5-5.7-6.1c-3.3-30-6.7-60-10-90c-0.2-4.7,0.1-8.7,4.4-12.4c2.4-2.1,3.5-6.9,3.3-10.4c-0.3-6.3-3.5-11.7-8.1-16.2
			c-1.5-1.4-2.2-3.6-3.3-5.5c2.1-0.6,4.2-1.6,6.3-1.6c10.2-0.2,20.3-0.1,30.5,0c5.2,0.1,10.5,0.2,15.7,0.3c0,11.5,0.1,22.9,0.1,34.4
			C498.9,304,498.8,333.5,498.8,362.9z"/>
		<path class="st1" d="M620.9,382c-9.6,0-19.2-0.3-28.7,0.1c-5.7,0.3-9.6-0.7-10.3-7.1c-1.3-12.3-2.7-24.6-4-36.8
			c0.1-1.3,0.4-2.7,0.1-4c-1.6-7.8,0.3-14.9,2.8-22.3c3.7-11.1,3.7-22.8-0.9-33.7c-2.9-7-7.2-13.4-10.8-20.1
			c-0.5-4.6-0.9-9.3-1.6-13.9c-0.7-3.8,0.6-5,4.4-4.9c16.3,0.4,32.6,0.7,48.9,1c0.1,1.7,0.2,3.3,0.2,5
			C621,290.8,620.9,336.4,620.9,382z"/>
		<path class="st2" d="M372.1,375.9c0.3,1,0.7,2,1,3.1c0.1,3.8-2.3,4.1-5.3,4.1c-12,0-23.9,0-35.9,0c-48.6,0-97.1-0.2-145.7-0.1
			c-4.7,0-6.7-1.2-6.4-6.1c0.3-5,0-10-0.1-15c0.1-36.1,0.3-72.2,0.4-108.3c0-39.6-0.1-79.2-0.2-118.8c0-2.6-0.7-5.2-1.1-7.8
			c0.7,1.7,1.8,3.3,2,5c0.3,2.7,0.1,5.6,0.1,9.8c21.3-11.8,42.8-16.8,66-10.9c0.2,0.6,0.2,1.5,0.5,1.6c9,3.6,16.5,9.2,22.3,16.9
			c14.6,19.1,13.5,44.8-3.1,63.6c-0.7,0.8-1.9,1.3-2.9,1.9c-0.9-2.1-1.4-4.5-2.8-6.1c-19.9-21.9-44.4-30-73.5-24.9
			c-4.7,0.8-6.7,2.7-6.7,7.8c0.1,61.3,0.1,122.6-0.1,183.9c0,5.1,1.6,6.6,6.6,6.5c18.2-0.3,36.3-0.1,54.5-0.1c1.1,0,2.1,0,3.2,0
			c16.4,0,32.7,0.1,49.1,0c1.9,0,3.8-0.6,5.8-1c4,0,8,0,12.1,0c1.9,0.3,3.9,0.9,5.8,1c16,0.1,32-0.1,48,0.1
			C370.7,382.2,372.6,380.6,372.1,375.9z"/>
		<path class="st1" d="M840,381c-6,0.3-12,0.7-18,1c-18.3,0-36.6,0-54.9,0c-22.7,0-45.5,0-68.2,0c-0.1-0.4-0.3-0.8-0.4-1.2
			c2.4-1.6,4.8-3.3,7.2-4.9c19.5-12.7,39-25.5,58.6-38.1c1.9-1.2,4.7-1.7,7-1.7c23.2-0.1,46.3-0.1,69.5-0.1
			c0,14.6,0.1,29.3,0.1,43.9C840.6,380.3,840.3,380.7,840,381z"/>
		<path class="st0" d="M569.1,258c3.7,6.7,7.9,13.1,10.8,20.1c4.6,11,4.6,22.6,0.9,33.7c-2.5,7.4-4.4,14.5-2.8,22.3
			c0.3,1.3-0.1,2.6-0.1,4c-0.7-4-1.4-8-2.2-12.8c-1.2,1.4-2.1,2.1-2.7,3c-8.3,11.6-19.8,18.5-33.5,22c-15.2,3.9-29.7-1.8-35.4-14
			c-8.2-17.6,2.4-37.2,21.7-39.7c7.4-1,14.4-2.4,20-7.8c7.7-5.3,13.1-20.9,6-32.3c-3.1-5-7.5-9.1-11.1-13.4c-0.1,0,0.5-0.1,1.2-0.1
			c9.7,2.7,18.2,7.3,25.3,14.5C567.6,257.9,568.4,257.9,569.1,258z"/>
		<path class="st2" d="M766.1,164c-17.2-6.7-34.4-13.3-51.6-20c-12.9-5-25.7-9.9-38.6-14.9c-1.4-0.5-2.6-1.3-4-2
			c18.1-0.1,36.3-0.2,54.4-0.2c38.6,0,77.2,0.1,115.8,0.2c2.1,0,4.1,0.3,7.2,0.6c-1.8,3.7-3.2,6.7-4.6,9.6c-3.5,7-7.2,13.9-10.4,21
			c-1.8,4.1-4.4,5.6-8.9,5.6C805.7,163.8,785.9,164,766.1,164z"/>
		<path class="st1" d="M1031,371.1c0,12.1,0.9,10.9-10.9,10.9c-5.6,0-11.2,0-16.9,0c-0.3-1.4-0.7-2.7-1-4.1
			c-3.2-30.4-6.5-60.8-9.7-91.2c-0.3-3-0.5-5.9-0.8-8.8c13,0,25.7,0,38.4,0c0,14.1-0.1,28.2,0,42.3c0,1.9,0.8,3.8,1.2,5.7
			c0,0-0.1-0.2-0.1-0.2c0,4.5,0,8.9,0,13.4l0-0.1C1031.1,349.7,1031,360.4,1031,371.1z"/>
		<path class="st2" d="M358.1,420.9c29.3,0,58.6,0,88,0c20,0,40-0.1,60-0.1c188.6,0,377.2,0,565.9,0c2.2,0,4.5,0,6.7,0
			c0.2-0.5,0.3-1,0.5-1.5c-20-5.8-36.2-16.4-47.4-36.5c5.6,0,10.1,0,14.6,0c6.6,0,7-0.5,6.8-7.2c-0.1-3.4-1.3-4.7-4.8-4.8
			c-5.4-0.1-10.9-0.5-16.3-0.9c5.3,0,10.6-0.2,16-0.1c3.6,0.1,5.2-1.2,5.1-4.9c-0.1-7-0.1-14,0-20.9c0-3.6-1.4-5.1-5.1-5.1
			c-5.3,0.1-10.6-0.1-15.9-0.1c3.2-0.3,6.5-0.8,9.7-0.9c11.8-0.4,11.6,2.3,11.2-12c4.6,0,9.3-0.4,13.9,0.1c1.5,0.2,3.5,2.5,3.8,4.2
			c3.5,16.8,7.6,33.5,9.8,50.5c1.6,12.3,0.6,24.9,0.5,37.4c0,1.2-1.9,2.9-3.2,3.3c-1.8,0.6-4,0.2-6,0.2c-188.1,0-376.2,0-564.3,0
			c-47.3,0-94.6,0-141.9,0C362.9,421.8,360.5,421.2,358.1,420.9z"/>
		<path class="st2" d="M245.9,420.9c30.1-34.2,82.1-34.2,112.1,0C320.7,420.9,283.3,420.9,245.9,420.9z"/>
		<path class="st2" d="M542,243c-0.7,0.1-1.3,0.2-1.2,0.1c3.6,4.3,8,8.4,11.1,13.4c7.1,11.5,1.6,27-6,32.3c-0.5-1-0.9-2.2-1.6-3.1
			c-8-10.9-27.3-17.6-40.4-14.3c-3.8,0.9-3.9,3.4-3.9,6.4c0,33,0,65.9,0,98.9c0,3.8,1.2,5.4,5.2,5.4c25.6-0.1,51.3-0.1,76.9-0.2
			c-1.9,0.4-3.8,1.1-5.7,1.1c-23.7,0.1-47.3,0-71,0.1c-4.7,0-6.7-1.3-6.4-6.2c0.3-4.6,0-9.3-0.1-14c0-29.5,0.1-58.9,0.1-88.4
			c0-11.5-0.1-22.9-0.1-34.4c0.7,2,1.3,3.9,2.2,6.6C514.2,239.9,527.8,238.3,542,243z"/>
		<path class="st2" d="M111.1,379.9c0.6,0.7,1.3,1.4,1.9,2.1c14.7,9.8,25.7,22.9,33.1,38.9c-19.1,0-38.2,0.1-57.3,0.2
			c-3.3,0-4.9-1.2-4.8-4.7c0.1-9.8,0.1-19.6,0-29.4c-0.1-3.8,1.7-4.9,5.2-4.8c5.6,0.1,11.3,0.2,16.9-0.1
			C107.7,381.9,109.4,380.7,111.1,379.9z"/>
		<path class="st2" d="M1002.1,377.9c0.3,1.4,0.7,2.7,1,4.1c-2.1,0.4-4.2,1.1-6.2,1c-9.1-0.2-18.2-0.8-27.3-0.8
			c-4.4,0-5.8-1.8-5.8-6c0-2.1-1.2-4.2-1.9-6.2c0.6-2.1,1.8-4.3,1.8-6.4c0.2-10.5,0.3-20.9,0.1-31.4c-0.1-4.2,0.9-6.6,5.7-6.4
			c6.3,0.3,12.6,0.2,18.8,0.1c4.3-0.1,5.4,2.1,5.3,5.9c-0.1,15-0.1,29.9,0,44.9c0,4.7,1.7,6.4,5.4,5.2
			C1000.5,381.4,1001.2,379.2,1002.1,377.9z"/>
		<path class="st0" d="M312,381c-4,0-8,0-12.1,0c-12.4-2.4-22.3-8.6-28.8-19.5c-3.8-6.4-5-13.2-2.5-20.5
			c11.3,9.8,23.9,10.9,37.4,7.5c8.4-2.1,15.5,0.3,20.9,7c5,6.2,5.1,12.5-1,17.7C322.1,376.6,316.8,378.5,312,381z"/>
		<path class="st2" d="M620.9,382c0-45.6,0.1-91.2,0.1-136.9c0-1.7-0.2-3.3-0.2-5c0.6,3,1.2,6,1.9,9.4c0.9-0.8,1.9-1.6,2.8-2.4
			c7.8-7,16.8-8.7,26.5-4.8c9.2,3.7,14.5,10.9,15.8,20.8c0.9,7.1-3.7,13.4-10.5,14.7c-6.5,1.2-12.9-3.2-14.6-10
			c-0.3-1.3-0.4-2.6-0.7-3.9c-1-4.9-4.8-8.6-9.7-9.6c-6.3-1.2-10.2,2-10.2,8.4c0,39.8-0.1,79.6-0.1,119.4
			C621.6,382.1,621.2,382.1,620.9,382z"/>
		<path class="st2" d="M483,239.9c-10.2,0-20.3-0.1-30.5,0c-2.1,0-4.2,1.1-6.3,1.6c1.1,1.9,1.9,4.1,3.3,5.5
			c4.6,4.5,7.8,9.9,8.1,16.2c0.2,3.5-0.9,8.3-3.3,10.4c-4.2,3.7-4.6,7.7-4.4,12.4c-0.4-1.6-0.5-3.3-1.2-4.8
			c-0.5-1.1-1.6-2.7-2.6-2.8c-8.9-0.6-12.8-5.8-14.1-14c-1.1-6.5-6.6-10.7-12.7-10.1c-5.7,0.6-6.5,2.2-6.7,10.9
			c-0.1,9.3-0.5,18.5-0.7,27.8c0-17,0-34.1,0-51.1c0.4,2.2,0.8,4.5,1.1,5.9c5.5-2.3,10.9-4.9,16.5-6.7c2.3-0.8,5.2-0.2,7.8,0.1
			c3.1,0.4,6.4,2.7,8.4-1.8c0.2-0.4,1.2-0.5,1.8-0.5C459.6,239.3,471.3,239.6,483,239.9z"/>
		<path class="st2" d="M245.1,382c-1.1,0-2.1,0-3.2,0c-13.9-6.4-18.7-18.2-12.7-30.8c3.6-7.4,14.2-13.6,21.2-12.1
			c-0.5,1.1-0.8,2.1-1.3,3.1c-4.3,7.6-4.1,12.5,1.2,19.3C257.5,370.8,256,376.9,245.1,382z"/>
		<path class="st3" d="M1052.9,326.1c0.4,14.3,0.6,11.6-11.2,12c-3.2,0.1-6.5,0.6-9.7,0.9c-0.3,0.1-0.5,0.2-0.8,0.2
			c0-4.5,0-8.9,0-13.4C1038.4,325.9,1045.7,326,1052.9,326.1z"/>
		<path class="st3" d="M1031.3,326c-0.4-1.9-1.2-3.8-1.2-5.7c-0.1-14.1,0-28.2,0-42.3c0.4,1.4,1,2.8,1,4.2
			C1031.2,296.7,1031.2,311.3,1031.3,326z"/>
		<path class="st4" d="M840,381c0.3-0.3,0.6-0.7,0.9-1c1.4,0.7,2.7,1.9,4.1,2c5.6,0.2,11.2,0,16.8,0.1c2.9,0,4.3-1.2,4.1-4.2
			c-0.1-1.6,0-3.3,0.1-4.9c0.4,1.7,0.7,3.3,1.1,5c0.3,3.8-1.4,5.3-5.2,5.2c-5.8-0.2-11.6,0.1-17.3-0.2
			C843.1,382.9,841.5,381.7,840,381z"/>
		<path class="st5" d="M412.1,293.1c0.2-9.3,0.6-18.5,0.7-27.8c0.1-8.7,1-10.3,6.7-10.9c6-0.6,11.6,3.5,12.7,10.1
			c1.4,8.2,5.3,13.4,14.1,14c0.9,0.1,2.1,1.7,2.6,2.8c0.7,1.5,0.8,3.2,1.2,4.8c3.3,30,6.7,60,10,90c-0.2,6.7-0.2,6.7-7,6.7
			c-11.8,0-23.6-0.2-35.5,0.1c-4.4,0.1-5.7-1.5-5.6-5.8C412.1,349,412.1,321,412.1,293.1z"/>
		<path class="st5" d="M581.9,381.9c-25.6,0-51.3,0-76.9,0.2c-4,0-5.2-1.6-5.2-5.4c0.1-33,0.1-65.9,0-98.9c0-2.9,0.1-5.4,3.9-6.4
			c13.1-3.3,32.5,3.4,40.4,14.3c0.7,0.9,1.1,2,1.6,3.1c-5.6,5.4-12.6,6.9-20,7.8c-19.3,2.5-29.9,22.1-21.7,39.7
			c5.7,12.3,20.2,17.9,35.4,14c13.7-3.5,25.1-10.4,33.5-22c0.6-0.9,1.5-1.7,2.7-3c0.8,4.8,1.5,8.8,2.2,12.8
			c1.3,12.3,2.7,24.6,4,36.8C581.9,377.3,581.9,379.6,581.9,381.9z"/>
		<path class="st4" d="M767.1,382c18.3,0,36.6,0,54.9,0c-11.5,13.2-26,21.1-43.2,23.7c-23.4,3.6-44.1-2.6-61.9-18.3
			c-1.1-1-2-2.1-3.8-4.1c2.7-0.2,4.4-0.4,6.1-0.4c13.8,0,27.6,0,41.4-0.1C762.8,382.8,764.9,382.3,767.1,382z"/>
		<path class="st6" d="M209.1,408c-11.6,0-21.9-8.2-24.4-19c-0.8-3.6,0.3-5,3.8-5c14,0,27.9,0.1,41.9,0c3.8,0,4.5,1.6,3.6,5
			C231.2,400.2,221.1,408,209.1,408z"/>
		<path class="st6" d="M915.4,384.6c2.2-0.2,3.6-0.5,5-0.5c14,0,28-0.1,42,0c5.6,0,6.4,1.5,3.9,6.2c-5.7,10.8-15.8,14.2-26.8,14.3
			c-10.6,0.1-18-6.1-22.8-15.3C916.1,388,916,386.7,915.4,384.6z"/>
		<path class="st1" d="M446.9,419.4c2.2-12.2,13.6-18.1,22.8-18.7c12-0.8,22.7,8.2,26.6,18.7C479.8,419.4,463.5,419.4,446.9,419.4z"
			/>
		<path class="st5" d="M1031.2,339.1c0.3,0,0.5-0.1,0.8-0.2c5.3,0.1,10.6,0.2,15.9,0.1c3.6-0.1,5.1,1.5,5.1,5.1
			c-0.1,7-0.1,14,0,20.9c0.1,3.7-1.5,5-5.1,4.9c-5.3-0.2-10.6,0-16,0.1c-0.2-0.2-0.5-0.3-0.8-0.4c0-10.2,0-20.4,0-30.6L1031.2,339.1
			z"/>
		<path class="st6" d="M887,408.5c0,6.9-4.9,11.3-12.5,11.2c-6.2,0-11.6-5.9-11.5-12.6c0.1-6.5,4.9-11.2,11.5-11.1
			C882.1,396.1,887,401,887,408.5z"/>
		<path class="st4" d="M535.2,384.9c6.2,0,11,5.2,10.9,11.8c-0.1,5.9-4.6,10.3-10.5,10.4c-6,0-11.3-5-11.4-10.9
			C524.1,390.2,529.2,384.9,535.2,384.9z"/>
		<path class="st6" d="M629.9,402.9c-0.2,6.2-4.7,10.6-10.8,10.6c-5.6-0.1-11.2-6-10.9-11.5c0.3-5.9,5.5-10.2,12-9.9
			C626.1,392.2,630.1,396.7,629.9,402.9z"/>
		<path class="st3" d="M1031.2,339c0,10.2,0,20.4,0,30.6c-0.1,0.5-0.1,1-0.2,1.4C1031,360.4,1031.1,349.7,1031.2,339z"/>
	</g>
</g>
</svg>
