<?xml version="1.0" encoding="UTF-8" standalone="no"?>
<!DOCTYPE svg PUBLIC "-//W3C//DTD SVG 1.1//EN"
 "http://www.w3.org/Graphics/SVG/1.1/DTD/svg11.dtd">
<!-- Generated by graphviz version 2.40.1 (20161225.0304)
 -->
<!-- Title: %3 Pages: 1 -->
<svg width="2600pt" height="354pt"
 viewBox="0.00 0.00 2600.13 353.90" xmlns="http://www.w3.org/2000/svg" xmlns:xlink="http://www.w3.org/1999/xlink">
<g id="graph0" class="graph" transform="scale(1 1) rotate(0) translate(4 349.8963)">
<title>%3</title>
<polygon fill="#ffffff" stroke="transparent" points="-4,4 -4,-349.8963 2596.1279,-349.8963 2596.1279,4 -4,4"/>
<g id="clust1" class="cluster">
<title>cluster_fe</title>
<polygon fill="none" stroke="#000000" points="627,-217.2642 627,-337.8963 1067,-337.8963 1067,-217.2642 627,-217.2642"/>
<text text-anchor="middle" x="847" y="-322.6963" font-family="Times,serif" font-size="14.00" fill="#000000">前端</text>
</g>
<g id="clust2" class="cluster">
<title>cluster_fedis</title>
<polygon fill="none" stroke="#000000" points="921,-225.2642 921,-302.2963 1059,-302.2963 1059,-225.2642 921,-225.2642"/>
<text text-anchor="middle" x="990" y="-287.0963" font-family="Times,serif" font-size="14.00" fill="#000000">Discover</text>
</g>
<g id="clust3" class="cluster">
<title>cluster_fed</title>
<polygon fill="none" stroke="#000000" points="635,-225.2642 635,-302.2963 913,-302.2963 913,-225.2642 635,-225.2642"/>
<text text-anchor="middle" x="774" y="-287.0963" font-family="Times,serif" font-size="14.00" fill="#000000">Dashbord</text>
</g>
<g id="clust4" class="cluster">
<title>cluster_be</title>
<polygon fill="none" stroke="#000000" points="8,-8 8,-209.2642 1525,-209.2642 1525,-8 8,-8"/>
<text text-anchor="middle" x="766.5" y="-194.0642" font-family="Times,serif" font-size="14.00" fill="#000000">Java后端</text>
</g>
<g id="clust5" class="cluster">
<title>cluster_dbu</title>
<polygon fill="none" stroke="#000000" points="16,-16 16,-173.6643 973,-173.6643 973,-16 16,-16"/>
<text text-anchor="middle" x="494.5" y="-158.4643" font-family="Times,serif" font-size="14.00" fill="#000000">用户系统</text>
</g>
<g id="clust6" class="cluster">
<title>cluster_dbp</title>
<polygon fill="none" stroke="#000000" points="981,-91.0322 981,-173.6643 1517,-173.6643 1517,-91.0322 981,-91.0322"/>
<text text-anchor="middle" x="1249" y="-158.4643" font-family="Times,serif" font-size="14.00" fill="#000000">企划管理</text>
</g>
<g id="clust7" class="cluster">
<title>cluster_dbu</title>
<polygon fill="none" stroke="#000000" points="1075,-225.2642 1075,-307.8963 1984,-307.8963 1984,-225.2642 1075,-225.2642"/>
<text text-anchor="middle" x="1529.5" y="-292.6963" font-family="Times,serif" font-size="14.00" fill="#000000">用户数据库</text>
</g>
<g id="clust8" class="cluster">
<title>cluster_dbw</title>
<polygon fill="none" stroke="#000000" points="1992,-225.2642 1992,-307.8963 2352,-307.8963 2352,-225.2642 1992,-225.2642"/>
<text text-anchor="middle" x="2172" y="-292.6963" font-family="Times,serif" font-size="14.00" fill="#000000">作品数据库</text>
</g>
<!-- 几个排行榜 -->
<g id="node1" class="node">
<title>几个排行榜</title>
<ellipse fill="none" stroke="#000000" cx="990" cy="-252.7803" rx="60.623" ry="19.5322"/>
<text text-anchor="middle" x="990" y="-251.3802" font-family="Times,serif" font-size="14.00" fill="#000000">几个排行榜</text>
</g>
<!-- 神奇的玄学排名Service -->
<g id="node11" class="node">
<title>神奇的玄学排名Service</title>
<ellipse fill="none" stroke="#000000" cx="1399" cy="-118.5483" rx="110.0887" ry="19.5322"/>
<text text-anchor="middle" x="1399" y="-117.1482" font-family="Times,serif" font-size="14.00" fill="#000000">神奇的玄学排名Service</text>
</g>
<!-- 几个排行榜&#45;&gt;神奇的玄学排名Service -->
<g id="edge6" class="edge">
<title>几个排行榜&#45;&gt;神奇的玄学排名Service</title>
<path fill="none" stroke="#000000" d="M1020.9861,-235.9232C1035.6964,-228.7851 1053.7899,-221.2166 1071,-217.2642 1116.2992,-206.8609 1236.2571,-224.9742 1280,-209.2642 1316.7425,-196.0683 1351.3554,-167.1036 1373.6771,-145.4312"/>
<polygon fill="#000000" stroke="#000000" points="1376.4196,-147.6401 1381.0434,-138.1074 1371.4842,-142.6761 1376.4196,-147.6401"/>
</g>
<!-- 注册 -->
<g id="node2" class="node">
<title>注册</title>
<ellipse fill="none" stroke="#000000" cx="874" cy="-252.7803" rx="31.2258" ry="19.5322"/>
<text text-anchor="middle" x="874" y="-251.3802" font-family="Times,serif" font-size="14.00" fill="#000000">注册</text>
</g>
<!-- 用户注册Service -->
<g id="node5" class="node">
<title>用户注册Service</title>
<ellipse fill="none" stroke="#000000" cx="884" cy="-118.5483" rx="80.6915" ry="19.5322"/>
<text text-anchor="middle" x="884" y="-117.1482" font-family="Times,serif" font-size="14.00" fill="#000000">用户注册Service</text>
</g>
<!-- 注册&#45;&gt;用户注册Service -->
<g id="edge1" class="edge">
<title>注册&#45;&gt;用户注册Service</title>
<path fill="none" stroke="#000000" d="M875.4541,-233.2618C877.1204,-210.8941 879.8693,-173.995 881.7985,-148.1001"/>
<polygon fill="#000000" stroke="#000000" points="885.2915,-148.3227 882.5442,-138.0903 878.3108,-147.8026 885.2915,-148.3227"/>
</g>
<!-- 登陆 -->
<g id="node3" class="node">
<title>登陆</title>
<ellipse fill="none" stroke="#000000" cx="794" cy="-252.7803" rx="31.2258" ry="19.5322"/>
<text text-anchor="middle" x="794" y="-251.3802" font-family="Times,serif" font-size="14.00" fill="#000000">登陆</text>
</g>
<!-- 用户登陆验证Service -->
<g id="node6" class="node">
<title>用户登陆验证Service</title>
<ellipse fill="none" stroke="#000000" cx="685" cy="-118.5483" rx="100.2894" ry="19.5322"/>
<text text-anchor="middle" x="685" y="-117.1482" font-family="Times,serif" font-size="14.00" fill="#000000">用户登陆验证Service</text>
</g>
<!-- 登陆&#45;&gt;用户登陆验证Service -->
<g id="edge3" class="edge">
<title>登陆&#45;&gt;用户登陆验证Service</title>
<path fill="none" stroke="#000000" d="M779.7502,-235.2318C761.2372,-212.4333 728.7242,-172.394 707.0241,-145.6706"/>
<polygon fill="#000000" stroke="#000000" points="709.6849,-143.3951 700.6642,-137.8385 704.2509,-147.8077 709.6849,-143.3951"/>
</g>
<!-- 用户设置 -->
<g id="node4" class="node">
<title>用户设置</title>
<ellipse fill="none" stroke="#000000" cx="694" cy="-252.7803" rx="50.8235" ry="19.5322"/>
<text text-anchor="middle" x="694" y="-251.3802" font-family="Times,serif" font-size="14.00" fill="#000000">用户设置</text>
</g>
<!-- 用户设置&#45;&gt;用户登陆验证Service -->
<g id="edge4" class="edge">
<title>用户设置&#45;&gt;用户登陆验证Service</title>
<path fill="none" stroke="#000000" d="M692.6913,-233.2618C691.1916,-210.8941 688.7176,-173.995 686.9814,-148.1001"/>
<polygon fill="#000000" stroke="#000000" points="690.4715,-147.8337 686.3103,-138.0903 683.4872,-148.3021 690.4715,-147.8337"/>
</g>
<!-- 手机验证Service -->
<g id="node8" class="node">
<title>手机验证Service</title>
<ellipse fill="none" stroke="#000000" cx="884" cy="-43.5161" rx="80.6915" ry="19.5322"/>
<text text-anchor="middle" x="884" y="-42.116" font-family="Times,serif" font-size="14.00" fill="#000000">手机验证Service</text>
</g>
<!-- 用户注册Service&#45;&gt;手机验证Service -->
<g id="edge2" class="edge">
<title>用户注册Service&#45;&gt;手机验证Service</title>
<path fill="none" stroke="#000000" d="M884,-98.8344C884,-90.9938 884,-81.8027 884,-73.1891"/>
<polygon fill="#000000" stroke="#000000" points="887.5001,-73.0982 884,-63.0982 880.5001,-73.0983 887.5001,-73.0982"/>
</g>
<!-- 各种用户的操作 -->
<g id="node7" class="node">
<title>各种用户的操作</title>
<ellipse fill="none" stroke="#000000" cx="685" cy="-43.5161" rx="80.7205" ry="19.5322"/>
<text text-anchor="middle" x="685" y="-42.116" font-family="Times,serif" font-size="14.00" fill="#000000">各种用户的操作</text>
</g>
<!-- 用户登陆验证Service&#45;&gt;各种用户的操作 -->
<g id="edge5" class="edge">
<title>用户登陆验证Service&#45;&gt;各种用户的操作</title>
<path fill="none" stroke="#000000" d="M685,-98.8344C685,-90.9938 685,-81.8027 685,-73.1891"/>
<polygon fill="#000000" stroke="#000000" points="688.5001,-73.0982 685,-63.0982 681.5001,-73.0983 688.5001,-73.0982"/>
</g>
<!-- 绑定bilibili_Service -->
<g id="node9" class="node">
<title>绑定bilibili_Service</title>
<ellipse fill="none" stroke="#000000" cx="474" cy="-118.5483" rx="92.2968" ry="19.5322"/>
<text text-anchor="middle" x="474" y="-117.1482" font-family="Times,serif" font-size="14.00" fill="#000000">绑定bilibili_Service</text>
</g>
<!-- 找回密码等目前不需要立即做的功能 -->
<g id="node10" class="node">
<title>找回密码等目前不需要立即做的功能</title>
<ellipse fill="none" stroke="#000000" cx="194" cy="-118.5483" rx="169.9115" ry="19.5322"/>
<text text-anchor="middle" x="194" y="-117.1482" font-family="Times,serif" font-size="14.00" fill="#000000">找回密码等目前不需要立即做的功能</text>
</g>
<!-- 申请成为中之人 -->
<g id="node12" class="node">
<title>申请成为中之人</title>
<ellipse fill="none" stroke="#000000" cx="1190" cy="-118.5483" rx="80.7205" ry="19.5322"/>
<text text-anchor="middle" x="1190" y="-117.1482" font-family="Times,serif" font-size="14.00" fill="#000000">申请成为中之人</text>
</g>
<!-- 提交作品 -->
<g id="node13" class="node">
<title>提交作品</title>
<ellipse fill="none" stroke="#000000" cx="1040" cy="-118.5483" rx="50.8235" ry="19.5322"/>
<text text-anchor="middle" x="1040" y="-117.1482" font-family="Times,serif" font-size="14.00" fill="#000000">提交作品</text>
</g>
<!-- username -->
<g id="node14" class="node">
<title>username</title>
<ellipse fill="none" stroke="#000000" cx="1932" cy="-252.7803" rx="43.9819" ry="18"/>
<text text-anchor="middle" x="1932" y="-248.5803" font-family="Times,serif" font-size="14.00" fill="#000000">username</text>
</g>
<!-- password(bcrypt) -->
<g id="node15" class="node">
<title>password(bcrypt)</title>
<ellipse fill="none" stroke="#000000" cx="1798" cy="-252.7803" rx="71.9876" ry="18"/>
<text text-anchor="middle" x="1798" y="-248.5803" font-family="Times,serif" font-size="14.00" fill="#000000">password(bcrypt)</text>
</g>
<!-- email -->
<g id="node16" class="node">
<title>email</title>
<ellipse fill="none" stroke="#000000" cx="1678" cy="-252.7803" rx="30.0018" ry="18"/>
<text text-anchor="middle" x="1678" y="-248.5803" font-family="Times,serif" font-size="14.00" fill="#000000">email</text>
</g>
<!-- uid -->
<g id="node17" class="node">
<title>uid</title>
<ellipse fill="none" stroke="#000000" cx="1603" cy="-252.7803" rx="27" ry="18"/>
<text text-anchor="middle" x="1603" y="-248.5803" font-family="Times,serif" font-size="14.00" fill="#000000">uid</text>
</g>
<!-- 头像 -->
<g id="node18" class="node">
<title>头像</title>
<ellipse fill="none" stroke="#000000" cx="1527" cy="-252.7803" rx="31.2258" ry="19.5322"/>
<text text-anchor="middle" x="1527" y="-251.3802" font-family="Times,serif" font-size="14.00" fill="#000000">头像</text>
</g>
<!-- phoneNumber -->
<g id="node19" class="node">
<title>phoneNumber</title>
<ellipse fill="none" stroke="#000000" cx="1417" cy="-252.7803" rx="60.896" ry="18"/>
<text text-anchor="middle" x="1417" y="-248.5803" font-family="Times,serif" font-size="14.00" fill="#000000">phoneNumber</text>
</g>
<!-- 该用户的作品 -->
<g id="node20" class="node">
<title>该用户的作品</title>
<ellipse fill="none" stroke="#000000" cx="1268" cy="-252.7803" rx="70.922" ry="19.5322"/>
<text text-anchor="middle" x="1268" y="-251.3802" font-family="Times,serif" font-size="14.00" fill="#000000">该用户的作品</text>
</g>
<!-- bilibiliMid -->
<g id="node21" class="node">
<title>bilibiliMid</title>
<ellipse fill="none" stroke="#000000" cx="1131" cy="-252.7803" rx="48.3686" ry="18"/>
<text text-anchor="middle" x="1131" y="-248.5803" font-family="Times,serif" font-size="14.00" fill="#000000">bilibiliMid</text>
</g>
<!-- 数字ID -->
<g id="node22" class="node">
<title>数字ID</title>
<ellipse fill="none" stroke="#000000" cx="2302" cy="-252.7803" rx="41.6169" ry="19.5322"/>
<text text-anchor="middle" x="2302" y="-251.3802" font-family="Times,serif" font-size="14.00" fill="#000000">数字ID</text>
</g>
<!-- 立绘/live2d/3d -->
<g id="node23" class="node">
<title>立绘/live2d/3d</title>
<ellipse fill="none" stroke="#000000" cx="2171" cy="-252.7803" rx="71.0146" ry="19.5322"/>
<text text-anchor="middle" x="2171" y="-251.3802" font-family="Times,serif" font-size="14.00" fill="#000000">立绘/live2d/3d</text>
</g>
<!-- 浏览照 -->
<g id="node24" class="node">
<title>浏览照</title>
<ellipse fill="none" stroke="#000000" cx="2041" cy="-252.7803" rx="41.0244" ry="19.5322"/>
<text text-anchor="middle" x="2041" y="-251.3802" font-family="Times,serif" font-size="14.00" fill="#000000">浏览照</text>
</g>
<!-- 数据库操作不写了→_→ -->
<g id="node25" class="node">
<title>数据库操作不写了→_→</title>
<ellipse fill="none" stroke="#000000" cx="2477" cy="-252.7803" rx="115.2559" ry="19.5322"/>
<text text-anchor="middle" x="2477" y="-251.3802" font-family="Times,serif" font-size="14.00" fill="#000000">数据库操作不写了→_→</text>
</g>
</g>
</svg>
